<?xml version="1.0" encoding="UTF-8" standalone="no"?>
<!DOCTYPE svg PUBLIC "-//W3C//DTD SVG 1.1//EN"
 "http://www.w3.org/Graphics/SVG/1.1/DTD/svg11.dtd">
<!-- Generated by graphviz version 2.47.0 (20210316.0004)
 -->
<!-- Title: dependencies Pages: 1 -->
<svg width="1563pt" height="284pt"
 viewBox="0.00 0.00 1563.00 284.00" xmlns="http://www.w3.org/2000/svg" xmlns:xlink="http://www.w3.org/1999/xlink">
<g id="graph0" class="graph" transform="scale(1 1) rotate(0) translate(4 280)">
<title>dependencies</title>
<polygon fill="white" stroke="transparent" points="-4,4 -4,-280 1559,-280 1559,4 -4,4"/>
<text text-anchor="start" x="756.51" y="-42.4" font-family="sans-serif" font-weight="bold" font-size="14.00">Legend</text>
<polygon fill="#ffffb3" stroke="transparent" points="543.5,-10 543.5,-30 563.5,-30 563.5,-10 543.5,-10"/>
<text text-anchor="start" x="567.13" y="-15.4" font-family="sans-serif" font-size="14.00"> &#160;Declarations</text>
<polygon fill="#8dd3c7" stroke="transparent" points="656.5,-10 656.5,-30 676.5,-30 676.5,-10 656.5,-10"/>
<text text-anchor="start" x="680.23" y="-15.4" font-family="sans-serif" font-size="14.00"> &#160;Module</text>
<polygon fill="#80b1d3" stroke="transparent" points="742.5,-10 742.5,-30 762.5,-30 762.5,-10 742.5,-10"/>
<text text-anchor="start" x="766.28" y="-15.4" font-family="sans-serif" font-size="14.00"> &#160;Bootstrap</text>
<polygon fill="#fdb462" stroke="transparent" points="839.5,-10 839.5,-30 859.5,-30 859.5,-10 839.5,-10"/>
<text text-anchor="start" x="863.17" y="-15.4" font-family="sans-serif" font-size="14.00"> &#160;Providers</text>
<polygon fill="#fb8072" stroke="transparent" points="935.5,-10 935.5,-30 955.5,-30 955.5,-10 935.5,-10"/>
<text text-anchor="start" x="959.23" y="-15.4" font-family="sans-serif" font-size="14.00"> &#160;Exports</text>
<g id="clust1" class="cluster">
<title>cluster_AppModule</title>
<polygon fill="none" stroke="black" stroke-dasharray="1,5" points="8,-70 8,-268 1547,-268 1547,-70 8,-70"/>
</g>
<g id="clust12" class="cluster">
<title>cluster_AppModule_imports</title>
<polygon fill="none" stroke="black" points="1270,-78 1270,-130 1539,-130 1539,-78 1270,-78"/>
</g>
<g id="clust14" class="cluster">
<title>cluster_AppModule_bootstrap</title>
<polygon fill="none" stroke="black" points="726,-208 726,-260 850,-260 850,-208 726,-208"/>
</g>
<g id="clust2" class="cluster">
<title>cluster_AppModule_declarations</title>
<polygon fill="none" stroke="black" points="16,-78 16,-130 1262,-130 1262,-78 16,-78"/>
</g>
<!-- AlphaComponent -->
<g id="node1" class="node">
<title>AlphaComponent</title>
<polygon fill="#ffffb3" stroke="black" points="1253.55,-122 1138.45,-122 1138.45,-86 1253.55,-86 1253.55,-122"/>
<text text-anchor="middle" x="1196" y="-99.8" font-family="Times,serif" font-size="14.00">AlphaComponent</text>
</g>
<!-- AppModule -->
<g id="node10" class="node">
<title>AppModule</title>
<polygon fill="#8dd3c7" stroke="black" points="829.66,-187 826.66,-191 805.66,-191 802.66,-187 746.34,-187 746.34,-151 829.66,-151 829.66,-187"/>
<text text-anchor="middle" x="788" y="-164.8" font-family="Times,serif" font-size="14.00">AppModule</text>
</g>
<!-- AlphaComponent&#45;&gt;AppModule -->
<g id="edge1" class="edge">
<title>AlphaComponent&#45;&gt;AppModule</title>
<path fill="none" stroke="black" d="M1196,-122.11C1196,-141.34 1196,-169 1196,-169 1196,-169 839.75,-169 839.75,-169"/>
<polygon fill="black" stroke="black" points="839.75,-165.5 829.75,-169 839.75,-172.5 839.75,-165.5"/>
</g>
<!-- AppComponent -->
<g id="node2" class="node">
<title>AppComponent</title>
<polygon fill="#ffffb3" stroke="black" points="1120.94,-122 1015.06,-122 1015.06,-86 1120.94,-86 1120.94,-122"/>
<text text-anchor="middle" x="1068" y="-99.8" font-family="Times,serif" font-size="14.00">AppComponent</text>
</g>
<!-- AppComponent&#45;&gt;AppModule -->
<g id="edge2" class="edge">
<title>AppComponent&#45;&gt;AppModule</title>
<path fill="none" stroke="black" d="M1068,-122.02C1068,-139.37 1068,-163 1068,-163 1068,-163 839.92,-163 839.92,-163"/>
<polygon fill="black" stroke="black" points="839.92,-159.5 829.92,-163 839.92,-166.5 839.92,-159.5"/>
</g>
<!-- BlankpageComponent -->
<g id="node3" class="node">
<title>BlankpageComponent</title>
<polygon fill="#ffffb3" stroke="black" points="997.7,-122 856.3,-122 856.3,-86 997.7,-86 997.7,-122"/>
<text text-anchor="middle" x="927" y="-99.8" font-family="Times,serif" font-size="14.00">BlankpageComponent</text>
</g>
<!-- BlankpageComponent&#45;&gt;AppModule -->
<g id="edge3" class="edge">
<title>BlankpageComponent&#45;&gt;AppModule</title>
<path fill="none" stroke="black" d="M927,-122.24C927,-137.57 927,-157 927,-157 927,-157 839.7,-157 839.7,-157"/>
<polygon fill="black" stroke="black" points="839.7,-153.5 829.7,-157 839.7,-160.5 839.7,-153.5"/>
</g>
<!-- CarComponent -->
<g id="node4" class="node">
<title>CarComponent</title>
<polygon fill="#ffffb3" stroke="black" points="838.55,-122 737.45,-122 737.45,-86 838.55,-86 838.55,-122"/>
<text text-anchor="middle" x="788" y="-99.8" font-family="Times,serif" font-size="14.00">CarComponent</text>
</g>
<!-- CarComponent&#45;&gt;AppModule -->
<g id="edge4" class="edge">
<title>CarComponent&#45;&gt;AppModule</title>
<path fill="none" stroke="black" d="M788,-122.11C788,-122.11 788,-140.99 788,-140.99"/>
<polygon fill="black" stroke="black" points="784.5,-140.99 788,-150.99 791.5,-140.99 784.5,-140.99"/>
</g>
<!-- DownloadComponent -->
<g id="node5" class="node">
<title>DownloadComponent</title>
<polygon fill="#ffffb3" stroke="black" points="718.65,-122 579.35,-122 579.35,-86 718.65,-86 718.65,-122"/>
<text text-anchor="middle" x="649" y="-99.8" font-family="Times,serif" font-size="14.00">DownloadComponent</text>
</g>
<!-- DownloadComponent&#45;&gt;AppModule -->
<g id="edge5" class="edge">
<title>DownloadComponent&#45;&gt;AppModule</title>
<path fill="none" stroke="black" d="M649,-122.24C649,-137.57 649,-157 649,-157 649,-157 736.3,-157 736.3,-157"/>
<polygon fill="black" stroke="black" points="736.3,-160.5 746.3,-157 736.3,-153.5 736.3,-160.5"/>
</g>
<!-- HomeComponent -->
<g id="node6" class="node">
<title>HomeComponent</title>
<polygon fill="#ffffb3" stroke="black" points="560.55,-122 445.45,-122 445.45,-86 560.55,-86 560.55,-122"/>
<text text-anchor="middle" x="503" y="-99.8" font-family="Times,serif" font-size="14.00">HomeComponent</text>
</g>
<!-- HomeComponent&#45;&gt;AppModule -->
<g id="edge6" class="edge">
<title>HomeComponent&#45;&gt;AppModule</title>
<path fill="none" stroke="black" d="M503,-122.02C503,-139.37 503,-163 503,-163 503,-163 736.25,-163 736.25,-163"/>
<polygon fill="black" stroke="black" points="736.25,-166.5 746.25,-163 736.25,-159.5 736.25,-166.5"/>
</g>
<!-- MoneyComponent -->
<g id="node7" class="node">
<title>MoneyComponent</title>
<polygon fill="#ffffb3" stroke="black" points="427.49,-122 306.51,-122 306.51,-86 427.49,-86 427.49,-122"/>
<text text-anchor="middle" x="367" y="-99.8" font-family="Times,serif" font-size="14.00">MoneyComponent</text>
</g>
<!-- MoneyComponent&#45;&gt;AppModule -->
<g id="edge7" class="edge">
<title>MoneyComponent&#45;&gt;AppModule</title>
<path fill="none" stroke="black" d="M367,-122.11C367,-141.34 367,-169 367,-169 367,-169 736.09,-169 736.09,-169"/>
<polygon fill="black" stroke="black" points="736.09,-172.5 746.09,-169 736.09,-165.5 736.09,-172.5"/>
</g>
<!-- NoteComponent -->
<g id="node8" class="node">
<title>NoteComponent</title>
<polygon fill="#ffffb3" stroke="black" points="288.05,-122 179.95,-122 179.95,-86 288.05,-86 288.05,-122"/>
<text text-anchor="middle" x="234" y="-99.8" font-family="Times,serif" font-size="14.00">NoteComponent</text>
</g>
<!-- NoteComponent&#45;&gt;AppModule -->
<g id="edge8" class="edge">
<title>NoteComponent&#45;&gt;AppModule</title>
<path fill="none" stroke="black" d="M234,-122.28C234,-143.32 234,-175 234,-175 234,-175 735.91,-175 735.91,-175"/>
<polygon fill="black" stroke="black" points="735.91,-178.5 745.91,-175 735.91,-171.5 735.91,-178.5"/>
</g>
<!-- SidemenuComponent -->
<g id="node9" class="node">
<title>SidemenuComponent</title>
<polygon fill="#ffffb3" stroke="black" points="161.83,-122 24.17,-122 24.17,-86 161.83,-86 161.83,-122"/>
<text text-anchor="middle" x="93" y="-99.8" font-family="Times,serif" font-size="14.00">SidemenuComponent</text>
</g>
<!-- SidemenuComponent&#45;&gt;AppModule -->
<g id="edge9" class="edge">
<title>SidemenuComponent&#45;&gt;AppModule</title>
<path fill="none" stroke="black" d="M93,-122.25C93,-145.02 93,-181 93,-181 93,-181 736.09,-181 736.09,-181"/>
<polygon fill="black" stroke="black" points="736.09,-184.5 746.09,-181 736.09,-177.5 736.09,-184.5"/>
</g>
<!-- AppComponent  -->
<g id="node13" class="node">
<title>AppComponent </title>
<polygon fill="#80b1d3" stroke="black" points="842.44,-252 733.56,-252 733.56,-216 842.44,-216 842.44,-252"/>
<text text-anchor="middle" x="788" y="-229.8" font-family="Times,serif" font-size="14.00">AppComponent </text>
</g>
<!-- AppModule&#45;&gt;AppComponent  -->
<g id="edge12" class="edge">
<title>AppModule&#45;&gt;AppComponent </title>
<path fill="none" stroke="black" stroke-dasharray="1,5" d="M788,-187.11C788,-187.11 788,-205.99 788,-205.99"/>
<polygon fill="black" stroke="black" points="784.5,-205.99 788,-215.99 791.5,-205.99 784.5,-205.99"/>
</g>
<!-- AppRoutingModule -->
<g id="node11" class="node">
<title>AppRoutingModule</title>
<polygon fill="#8dd3c7" stroke="black" points="1531.27,-122 1528.27,-126 1507.27,-126 1504.27,-122 1402.73,-122 1402.73,-86 1531.27,-86 1531.27,-122"/>
<text text-anchor="middle" x="1467" y="-99.8" font-family="Times,serif" font-size="14.00">AppRoutingModule</text>
</g>
<!-- AppRoutingModule&#45;&gt;AppModule -->
<g id="edge10" class="edge">
<title>AppRoutingModule&#45;&gt;AppModule</title>
<path fill="none" stroke="black" d="M1467,-122.25C1467,-145.02 1467,-181 1467,-181 1467,-181 839.71,-181 839.71,-181"/>
<polygon fill="black" stroke="black" points="839.71,-177.5 829.71,-181 839.71,-184.5 839.71,-177.5"/>
</g>
<!-- MaterialModule -->
<g id="node12" class="node">
<title>MaterialModule</title>
<polygon fill="#8dd3c7" stroke="black" points="1384.47,-122 1381.47,-126 1360.47,-126 1357.47,-122 1277.53,-122 1277.53,-86 1384.47,-86 1384.47,-122"/>
<text text-anchor="middle" x="1331" y="-99.8" font-family="Times,serif" font-size="14.00">MaterialModule</text>
</g>
<!-- MaterialModule&#45;&gt;AppModule -->
<g id="edge11" class="edge">
<title>MaterialModule&#45;&gt;AppModule</title>
<path fill="none" stroke="black" d="M1331,-122.28C1331,-143.32 1331,-175 1331,-175 1331,-175 839.71,-175 839.71,-175"/>
<polygon fill="black" stroke="black" points="839.71,-171.5 829.71,-175 839.71,-178.5 839.71,-171.5"/>
</g>
</g>
</svg>
